<?xml version="1.0" encoding="UTF-8"?>
<!-- My Brand New Logo (1.0.92), id: rrxzNpXwDvsJBOYvrPkx (1.2.0), date: 2021-10-02 09:42 -->
<svg version="1.1" preserveAspectRatio="xMidYMid meet" xmlns="http://www.w3.org/2000/svg" xmlns:xlink="http://www.w3.org/1999/xlink" viewBox="269.436 425.747 461.127 148.506" width="1000" height="322">
	<defs>
		<path id="def-1" d="M416.269,500 A72.688,72.688 0 1 0 270.892,500 A72.688,72.688 0 1 0 416.269,500 Z" stroke-linecap="round" stroke-linejoin="round" stroke-miterlimit="25"></path>
		<path id="def-2" d="M378.992,457.634 L378.992,542.366 L358.682,542.366 L358.682,506.983 L328.596,506.983 L328.596,542.366 L308.169,542.366 L308.169,457.634 L328.596,457.634 L328.596,491.271 L358.682,491.271 L358.682,457.634 L378.992,457.634 Z" fill="#000"></path>
		<mask id="mask-1" x="247.632" y="403.943" width="191.898" height="192.114" maskUnits="userSpaceOnUse" stroke-width="0">
			<rect x="256.355" y="412.665" width="174.452" height="174.669" fill="#fff"></rect>
			<use xlink:href="#def-2"></use>
		</mask>
		<g id="def-3" mask="url(#mask-1)">
			<use xlink:href="#def-1" stroke-width="0"></use>
		</g>
		<path id="def-4" d="M446.814,514.32 L446.814,514.32 L446.814,485.455 Q446.814,484.411,447.858,483.866 Q448.902,483.322,450.354,483.322 Q451.807,483.322,452.85,483.866 Q453.894,484.411,453.894,485.455 L453.894,485.455 L453.894,496.574 L462.926,496.574 L462.926,485.455 Q462.926,484.411,463.97,483.866 Q465.014,483.322,466.466,483.322 Q467.918,483.322,468.962,483.866 Q470.006,484.411,470.006,485.455 L470.006,485.455 L470.006,514.32 Q470.006,515.363,468.962,515.931 Q467.918,516.498,466.466,516.498 Q465.014,516.498,463.97,515.931 Q462.926,515.363,462.926,514.32 L462.926,514.32 L462.926,502.02 L453.894,502.02 L453.894,514.32 Q453.894,515.363,452.85,515.931 Q451.807,516.498,450.354,516.498 Q448.902,516.498,447.858,515.931 Q446.814,515.363,446.814,514.32 Z M475.906,506.059 L475.906,506.059 L475.906,494.033 Q475.906,488.496,478.947,485.909 Q481.987,483.322,487.025,483.322 L487.025,483.322 Q492.108,483.322,495.149,485.909 Q498.19,488.496,498.19,494.033 L498.19,494.033 L498.19,506.059 Q498.19,511.596,495.149,514.183 Q492.108,516.77,487.025,516.77 L487.025,516.77 Q481.987,516.77,478.947,514.183 Q475.906,511.596,475.906,506.059 Z M482.986,494.033 L482.986,506.059 Q482.986,510.598,487.025,510.598 L487.025,510.598 Q491.11,510.598,491.11,506.059 L491.11,506.059 L491.11,494.033 Q491.11,489.494,487.025,489.494 L487.025,489.494 Q482.986,489.494,482.986,494.033 L482.986,494.033 Z M504.09,514.32 L504.09,514.32 L504.09,485.455 Q504.09,484.411,505.134,483.866 Q506.178,483.322,507.63,483.322 Q509.082,483.322,510.126,483.866 Q511.17,484.411,511.17,485.455 L511.17,485.455 L511.17,510.326 L521.518,510.326 Q522.471,510.326,523.015,511.233 Q523.56,512.141,523.56,513.412 Q523.56,514.683,523.015,515.59 Q522.471,516.498,521.518,516.498 L521.518,516.498 L507.176,516.498 Q505.905,516.498,504.998,515.931 Q504.09,515.363,504.09,514.32 Z M526.918,506.059 L526.918,506.059 L526.918,494.033 Q526.918,488.496,529.959,485.909 Q533,483.322,538.038,483.322 L538.038,483.322 Q543.121,483.322,546.162,485.909 Q549.202,488.496,549.202,494.033 L549.202,494.033 L549.202,506.059 Q549.202,511.596,546.162,514.183 Q543.121,516.77,538.038,516.77 L538.038,516.77 Q533,516.77,529.959,514.183 Q526.918,511.596,526.918,506.059 Z M533.998,494.033 L533.998,506.059 Q533.998,510.598,538.038,510.598 L538.038,510.598 Q542.122,510.598,542.122,506.059 L542.122,506.059 L542.122,494.033 Q542.122,489.494,538.038,489.494 L538.038,489.494 Q533.998,489.494,533.998,494.033 L533.998,494.033 Z M555.102,514.365 L555.102,514.365 L555.102,485.455 Q555.102,484.592,555.965,483.957 Q556.827,483.322,558.189,483.322 L558.189,483.322 L566.222,483.322 Q571.305,483.322,574.346,485.909 Q577.386,488.496,577.386,494.033 L577.386,494.033 L577.386,505.787 Q577.386,511.324,574.346,513.911 Q571.305,516.498,566.222,516.498 L566.222,516.498 L558.189,516.498 Q556.827,516.498,555.965,515.863 Q555.102,515.227,555.102,514.365 Z M562.182,489.494 L562.182,510.326 L566.222,510.326 Q570.306,510.326,570.306,505.787 L570.306,505.787 L570.306,494.033 Q570.306,489.494,566.222,489.494 L566.222,489.494 L562.182,489.494 Z M582.878,506.059 L582.878,506.059 L582.878,494.033 Q582.878,488.496,585.919,485.909 Q588.959,483.322,593.997,483.322 L593.997,483.322 Q599.08,483.322,602.121,485.909 Q605.162,488.496,605.162,494.033 L605.162,494.033 L605.162,506.059 Q605.162,511.596,602.121,514.183 Q599.08,516.77,593.997,516.77 L593.997,516.77 Q588.959,516.77,585.919,514.183 Q582.878,511.596,582.878,506.059 Z M589.958,494.033 L589.958,506.059 Q589.958,510.598,593.997,510.598 L593.997,510.598 Q598.082,510.598,598.082,506.059 L598.082,506.059 L598.082,494.033 Q598.082,489.494,593.997,489.494 L593.997,489.494 Q589.958,489.494,589.958,494.033 L589.958,494.033 Z M609.473,511.052 L609.473,511.052 Q609.473,509.781,610.404,508.51 Q611.334,507.239,612.56,507.239 L612.56,507.239 Q613.24,507.239,614.08,507.761 Q614.92,508.283,615.623,508.919 Q616.326,509.554,617.597,510.076 Q618.868,510.598,620.275,510.598 L620.275,510.598 Q622.045,510.598,623.361,509.849 Q624.677,509.1,624.677,507.603 Q624.677,506.105,623.202,504.97 Q621.727,503.836,619.617,502.905 Q617.506,501.975,615.373,500.818 Q613.24,499.66,611.765,497.527 Q610.29,495.394,610.29,492.444 L610.29,492.444 Q610.29,487.724,613.694,485.387 Q617.098,483.049,621.909,483.049 L621.909,483.049 Q623.089,483.049,624.382,483.186 Q625.676,483.322,627.287,483.707 Q628.898,484.093,629.919,484.956 Q630.94,485.818,630.94,487.043 L630.94,487.043 Q630.94,488.223,630.192,489.494 Q629.443,490.765,628.127,490.765 L628.127,490.765 Q627.582,490.765,625.812,489.902 Q624.042,489.04,621.909,489.04 L621.909,489.04 Q619.64,489.04,618.505,489.834 Q617.37,490.629,617.37,491.763 L617.37,491.763 Q617.37,492.807,618.437,493.669 Q619.503,494.532,621.092,495.144 Q622.68,495.757,624.564,496.733 Q626.447,497.709,628.036,498.866 Q629.624,500.023,630.691,502.111 Q631.757,504.199,631.757,506.876 L631.757,506.876 Q631.757,511.642,628.626,514.297 Q625.494,516.952,620.411,516.952 L620.411,516.952 Q616.009,516.952,612.741,515.136 Q609.473,513.321,609.473,511.052 Z M635.207,513.276 L635.207,513.276 Q635.207,511.823,636.205,510.802 Q637.204,509.781,638.701,509.781 L638.701,509.781 Q640.108,509.781,641.129,510.825 Q642.15,511.869,642.15,513.276 Q642.15,514.683,641.129,515.726 Q640.108,516.77,638.701,516.77 L638.701,516.77 Q637.249,516.77,636.228,515.726 Q635.207,514.683,635.207,513.276 Z M646.644,506.059 L646.644,506.059 L646.644,494.033 Q646.644,488.496,649.662,485.909 Q652.68,483.322,657.536,483.322 L657.536,483.322 Q662.528,483.322,665.728,485.727 Q668.927,488.132,668.927,492.353 L668.927,492.353 Q668.927,494.305,668.111,495.008 Q667.294,495.712,665.387,495.712 L665.387,495.712 Q661.984,495.712,661.847,493.579 L661.847,493.579 Q661.711,489.494,657.808,489.494 L657.808,489.494 Q653.724,489.494,653.724,494.033 L653.724,494.033 L653.724,506.059 Q653.724,510.598,657.854,510.598 L657.854,510.598 Q659.124,510.598,659.964,510.189 Q660.804,509.781,661.167,508.941 Q661.53,508.102,661.643,507.557 Q661.757,507.013,661.847,506.059 L661.847,506.059 Q662.029,503.926,665.342,503.926 L665.342,503.926 Q667.294,503.926,668.111,504.63 Q668.927,505.333,668.927,507.285 L668.927,507.285 Q668.927,511.687,665.728,514.229 Q662.528,516.77,657.536,516.77 L657.536,516.77 Q652.68,516.77,649.662,514.183 Q646.644,511.596,646.644,506.059 Z M673.511,506.059 L673.511,506.059 L673.511,494.033 Q673.511,488.496,676.552,485.909 Q679.593,483.322,684.631,483.322 L684.631,483.322 Q689.714,483.322,692.755,485.909 Q695.795,488.496,695.795,494.033 L695.795,494.033 L695.795,506.059 Q695.795,511.596,692.755,514.183 Q689.714,516.77,684.631,516.77 L684.631,516.77 Q679.593,516.77,676.552,514.183 Q673.511,511.596,673.511,506.059 Z M680.591,494.033 L680.591,506.059 Q680.591,510.598,684.631,510.598 L684.631,510.598 Q688.715,510.598,688.715,506.059 L688.715,506.059 L688.715,494.033 Q688.715,489.494,684.631,489.494 L684.631,489.494 Q680.591,489.494,680.591,494.033 L680.591,494.033 Z M701.695,514.32 L701.695,514.32 L701.695,486.862 Q701.695,485.046,702.716,484.184 Q703.738,483.322,705.235,483.322 L705.235,483.322 Q707.278,483.322,708.344,483.934 Q709.411,484.547,710.727,486.862 L710.727,486.862 L715.402,495.031 L720.076,486.862 Q721.392,484.547,722.459,483.934 Q723.525,483.322,725.568,483.322 L725.568,483.322 Q727.065,483.322,728.087,484.184 Q729.108,485.046,729.108,486.862 L729.108,486.862 L729.108,514.32 Q729.108,515.363,728.064,515.931 Q727.02,516.498,725.568,516.498 Q724.115,516.498,723.072,515.931 Q722.028,515.363,722.028,514.32 L722.028,514.32 L722.028,497.3 L717.671,504.743 Q716.899,506.059,715.311,506.059 L715.311,506.059 Q713.768,506.059,713.087,504.743 L713.087,504.743 L708.775,496.846 L708.775,514.32 Q708.775,515.363,707.731,515.931 Q706.688,516.498,705.235,516.498 Q703.783,516.498,702.739,515.931 Q701.695,515.363,701.695,514.32 Z"></path>
		<mask id="mask-2" x="247.632" y="403.943" width="191.898" height="192.114" maskUnits="userSpaceOnUse" stroke-width="0">
			<rect x="256.355" y="412.665" width="174.452" height="174.669" fill="#000"></rect>
			<use xlink:href="#def-3" fill="#fff" stroke="#fff"></use>
		</mask>
		<mask id="mask-3" x="441.374" y="477.624" width="293.159" height="44.753" maskUnits="userSpaceOnUse" stroke-width="0">
			<rect x="443.408" y="479.658" width="289.09" height="40.684" fill="#000"></rect>
			<use xlink:href="#def-4" fill="#fff" stroke="#fff"></use>
		</mask>
	</defs>
	<g mask="url(#mask-2)">
		<rect x="256.355" y="412.665" width="174.452" height="174.669" fill="#000"></rect>
	</g>
	<g mask="url(#mask-3)">
		<rect x="443.408" y="479.658" width="289.09" height="40.684" fill="#000"></rect>
	</g>
</svg>
