<?xml version="1.0" encoding="UTF-8"?>
<!-- My Brand New Logo (1.0.92), id: rrxzNpXwDvsJBOYvrPkx (1.2.0), date: 2021-10-04 09:06 -->
<svg version="1.1" preserveAspectRatio="xMidYMid meet" xmlns="http://www.w3.org/2000/svg" xmlns:xlink="http://www.w3.org/1999/xlink" viewBox="219.362 431.913 561.275 136.173" width="1000" height="244">
	<defs>
		<path id="def-1" d="M220.698,433.248 A0,0 0 0 1 220.698,433.248 L354.201,433.248 A0,0 0 0 1 354.201,433.248 L354.201,566.752 A0,0 0 0 1 354.201,566.752 L220.698,566.752 A0,0 0 0 1 220.698,566.752 Z" stroke-linecap="round" stroke-linejoin="round" stroke-miterlimit="25"></path>
		<path id="def-2" d="M319.968,461.094 L319.968,538.906 L301.317,538.906 L301.317,506.413 L273.688,506.413 L273.688,538.906 L254.93,538.906 L254.93,461.094 L273.688,461.094 L273.688,491.984 L301.317,491.984 L301.317,461.094 L319.968,461.094 Z" fill="#000"></path>
		<mask id="mask-1" x="199.337" y="411.888" width="176.224" height="176.224" maskUnits="userSpaceOnUse" stroke-width="0">
			<rect x="207.347" y="419.898" width="160.204" height="160.204" fill="#fff"></rect>
			<use xlink:href="#def-2"></use>
		</mask>
		<g id="def-3" mask="url(#mask-1)">
			<use xlink:href="#def-1" stroke-width="0"></use>
		</g>
		<path id="def-4" d="M382.259,520.14 L382.259,520.14 L382.259,479.542 Q382.259,478.074,383.727,477.308 Q385.195,476.542,387.238,476.542 Q389.28,476.542,390.748,477.308 Q392.217,478.074,392.217,479.542 L392.217,479.542 L392.217,495.181 L404.919,495.181 L404.919,479.542 Q404.919,478.074,406.388,477.308 Q407.856,476.542,409.898,476.542 Q411.941,476.542,413.409,477.308 Q414.877,478.074,414.877,479.542 L414.877,479.542 L414.877,520.14 Q414.877,521.608,413.409,522.406 Q411.941,523.204,409.898,523.204 Q407.856,523.204,406.388,522.406 Q404.919,521.608,404.919,520.14 L404.919,520.14 L404.919,502.841 L392.217,502.841 L392.217,520.14 Q392.217,521.608,390.748,522.406 Q389.28,523.204,387.238,523.204 Q385.195,523.204,383.727,522.406 Q382.259,521.608,382.259,520.14 Z M423.176,508.523 L423.176,508.523 L423.176,491.607 Q423.176,483.819,427.453,480.181 Q431.729,476.542,438.815,476.542 L438.815,476.542 Q445.964,476.542,450.241,480.181 Q454.518,483.819,454.518,491.607 L454.518,491.607 L454.518,508.523 Q454.518,516.31,450.241,519.949 Q445.964,523.587,438.815,523.587 L438.815,523.587 Q431.729,523.587,427.453,519.949 Q423.176,516.31,423.176,508.523 Z M433.134,491.607 L433.134,508.523 Q433.134,514.906,438.815,514.906 L438.815,514.906 Q444.56,514.906,444.56,508.523 L444.56,508.523 L444.56,491.607 Q444.56,485.223,438.815,485.223 L438.815,485.223 Q433.134,485.223,433.134,491.607 L433.134,491.607 Z M462.816,520.14 L462.816,520.14 L462.816,479.542 Q462.816,478.074,464.285,477.308 Q465.753,476.542,467.795,476.542 Q469.838,476.542,471.306,477.308 Q472.774,478.074,472.774,479.542 L472.774,479.542 L472.774,514.523 L487.328,514.523 Q488.669,514.523,489.435,515.8 Q490.201,517.076,490.201,518.864 Q490.201,520.651,489.435,521.928 Q488.669,523.204,487.328,523.204 L487.328,523.204 L467.157,523.204 Q465.37,523.204,464.093,522.406 Q462.816,521.608,462.816,520.14 Z M494.925,508.523 L494.925,508.523 L494.925,491.607 Q494.925,483.819,499.201,480.181 Q503.478,476.542,510.564,476.542 L510.564,476.542 Q517.713,476.542,521.99,480.181 Q526.267,483.819,526.267,491.607 L526.267,491.607 L526.267,508.523 Q526.267,516.31,521.99,519.949 Q517.713,523.587,510.564,523.587 L510.564,523.587 Q503.478,523.587,499.201,519.949 Q494.925,516.31,494.925,508.523 Z M504.883,491.607 L504.883,508.523 Q504.883,514.906,510.564,514.906 L510.564,514.906 Q516.309,514.906,516.309,508.523 L516.309,508.523 L516.309,491.607 Q516.309,485.223,510.564,485.223 L510.564,485.223 Q504.883,485.223,504.883,491.607 L504.883,491.607 Z M534.565,520.204 L534.565,520.204 L534.565,479.542 Q534.565,478.329,535.778,477.436 Q536.991,476.542,538.906,476.542 L538.906,476.542 L550.204,476.542 Q557.354,476.542,561.631,480.181 Q565.907,483.819,565.907,491.607 L565.907,491.607 L565.907,508.14 Q565.907,515.927,561.631,519.566 Q557.354,523.204,550.204,523.204 L550.204,523.204 L538.906,523.204 Q536.991,523.204,535.778,522.311 Q534.565,521.417,534.565,520.204 Z M544.523,485.223 L544.523,514.523 L550.204,514.523 Q555.949,514.523,555.949,508.14 L555.949,508.14 L555.949,491.607 Q555.949,485.223,550.204,485.223 L550.204,485.223 L544.523,485.223 Z M573.631,508.523 L573.631,508.523 L573.631,491.607 Q573.631,483.819,577.908,480.181 Q582.185,476.542,589.27,476.542 L589.27,476.542 Q596.42,476.542,600.697,480.181 Q604.973,483.819,604.973,491.607 L604.973,491.607 L604.973,508.523 Q604.973,516.31,600.697,519.949 Q596.42,523.587,589.27,523.587 L589.27,523.587 Q582.185,523.587,577.908,519.949 Q573.631,516.31,573.631,508.523 Z M583.589,491.607 L583.589,508.523 Q583.589,514.906,589.27,514.906 L589.27,514.906 Q595.015,514.906,595.015,508.523 L595.015,508.523 L595.015,491.607 Q595.015,485.223,589.27,485.223 L589.27,485.223 Q583.589,485.223,583.589,491.607 L583.589,491.607 Z M611.038,515.544 L611.038,515.544 Q611.038,513.757,612.346,511.97 Q613.655,510.182,615.378,510.182 L615.378,510.182 Q616.336,510.182,617.517,510.916 Q618.698,511.65,619.687,512.544 Q620.676,513.438,622.464,514.172 Q624.251,514.906,626.23,514.906 L626.23,514.906 Q628.719,514.906,630.571,513.853 Q632.422,512.799,632.422,510.693 Q632.422,508.586,630.347,506.991 Q628.273,505.395,625.304,504.086 Q622.336,502.778,619.336,501.15 Q616.336,499.522,614.261,496.522 Q612.187,493.522,612.187,489.373 L612.187,489.373 Q612.187,482.734,616.974,479.446 Q621.762,476.159,628.528,476.159 L628.528,476.159 Q630.188,476.159,632.007,476.351 Q633.826,476.542,636.092,477.085 Q638.358,477.627,639.795,478.84 Q641.231,480.053,641.231,481.776 L641.231,481.776 Q641.231,483.436,640.178,485.223 Q639.124,487.011,637.273,487.011 L637.273,487.011 Q636.507,487.011,634.018,485.798 Q631.528,484.585,628.528,484.585 L628.528,484.585 Q625.336,484.585,623.74,485.702 Q622.145,486.819,622.145,488.415 L622.145,488.415 Q622.145,489.883,623.645,491.096 Q625.145,492.309,627.379,493.171 Q629.613,494.032,632.262,495.405 Q634.911,496.777,637.145,498.405 Q639.38,500.033,640.88,502.969 Q642.38,505.905,642.38,509.672 L642.38,509.672 Q642.38,516.374,637.975,520.108 Q633.571,523.843,626.421,523.843 L626.421,523.843 Q620.23,523.843,615.634,521.289 Q611.038,518.736,611.038,515.544 Z M647.231,518.672 L647.231,518.672 Q647.231,516.629,648.635,515.193 Q650.04,513.757,652.146,513.757 L652.146,513.757 Q654.125,513.757,655.561,515.225 Q656.998,516.693,656.998,518.672 Q656.998,520.651,655.561,522.119 Q654.125,523.587,652.146,523.587 L652.146,523.587 Q650.104,523.587,648.667,522.119 Q647.231,520.651,647.231,518.672 Z M663.317,508.523 L663.317,508.523 L663.317,491.607 Q663.317,483.819,667.562,480.181 Q671.807,476.542,678.637,476.542 L678.637,476.542 Q685.659,476.542,690.159,479.925 Q694.659,483.308,694.659,489.245 L694.659,489.245 Q694.659,491.99,693.51,492.979 Q692.361,493.969,689.68,493.969 L689.68,493.969 Q684.893,493.969,684.701,490.968 L684.701,490.968 Q684.51,485.223,679.02,485.223 L679.02,485.223 Q673.275,485.223,673.275,491.607 L673.275,491.607 L673.275,508.523 Q673.275,514.906,679.084,514.906 L679.084,514.906 Q680.871,514.906,682.052,514.331 Q683.233,513.757,683.744,512.576 Q684.254,511.395,684.414,510.629 Q684.574,509.863,684.701,508.523 L684.701,508.523 Q684.957,505.522,689.616,505.522 L689.616,505.522 Q692.361,505.522,693.51,506.512 Q694.659,507.501,694.659,510.246 L694.659,510.246 Q694.659,516.438,690.159,520.013 Q685.659,523.587,678.637,523.587 L678.637,523.587 Q671.807,523.587,667.562,519.949 Q663.317,516.31,663.317,508.523 Z M701.107,508.523 L701.107,508.523 L701.107,491.607 Q701.107,483.819,705.383,480.181 Q709.66,476.542,716.746,476.542 L716.746,476.542 Q723.895,476.542,728.172,480.181 Q732.449,483.819,732.449,491.607 L732.449,491.607 L732.449,508.523 Q732.449,516.31,728.172,519.949 Q723.895,523.587,716.746,523.587 L716.746,523.587 Q709.66,523.587,705.383,519.949 Q701.107,516.31,701.107,508.523 Z M711.065,491.607 L711.065,508.523 Q711.065,514.906,716.746,514.906 L716.746,514.906 Q722.491,514.906,722.491,508.523 L722.491,508.523 L722.491,491.607 Q722.491,485.223,716.746,485.223 L716.746,485.223 Q711.065,485.223,711.065,491.607 L711.065,491.607 Z M740.747,520.14 L740.747,520.14 L740.747,481.521 Q740.747,478.968,742.183,477.755 Q743.62,476.542,745.726,476.542 L745.726,476.542 Q748.599,476.542,750.099,477.404 Q751.599,478.266,753.45,481.521 L753.45,481.521 L760.025,493.011 L766.6,481.521 Q768.451,478.266,769.951,477.404 Q771.451,476.542,774.323,476.542 L774.323,476.542 Q776.43,476.542,777.866,477.755 Q779.302,478.968,779.302,481.521 L779.302,481.521 L779.302,520.14 Q779.302,521.608,777.834,522.406 Q776.366,523.204,774.323,523.204 Q772.281,523.204,770.813,522.406 Q769.344,521.608,769.344,520.14 L769.344,520.14 L769.344,496.203 L763.216,506.671 Q762.131,508.523,759.897,508.523 L759.897,508.523 Q757.727,508.523,756.769,506.671 L756.769,506.671 L750.705,495.564 L750.705,520.14 Q750.705,521.608,749.237,522.406 Q747.769,523.204,745.726,523.204 Q743.683,523.204,742.215,522.406 Q740.747,521.608,740.747,520.14 Z"></path>
		<mask id="mask-2" x="199.337" y="411.888" width="176.224" height="176.224" maskUnits="userSpaceOnUse" stroke-width="0">
			<rect x="207.347" y="419.898" width="160.204" height="160.204" fill="#000"></rect>
			<use xlink:href="#def-3" fill="#fff" stroke="#fff"></use>
		</mask>
		<mask id="mask-3" x="374.607" y="468.528" width="412.326" height="62.944" maskUnits="userSpaceOnUse" stroke-width="0">
			<rect x="377.468" y="471.389" width="406.603" height="57.222" fill="#000"></rect>
			<use xlink:href="#def-4" fill="#fff" stroke="#fff"></use>
		</mask>
	</defs>
	<g mask="url(#mask-2)">
		<rect x="207.347" y="419.898" width="160.204" height="160.204" fill="#000"></rect>
	</g>
	<g mask="url(#mask-3)">
		<rect x="377.468" y="471.389" width="406.603" height="57.222" fill="#000"></rect>
	</g>
</svg>
